<?xml version="1.0" encoding="iso-8859-1"?>
<!-- Uploaded to: SVG Repo, www.svgrepo.com, Generator: SVG Repo Mixer Tools -->
<svg height="800px" width="800px" version="1.1" id="Capa_1" xmlns="http://www.w3.org/2000/svg" xmlns:xlink="http://www.w3.org/1999/xlink" 
	 viewBox="0 0 58.814 58.814" xml:space="preserve">
<g>
	<g>
		<path style="fill:#030104;" d="M20.971,12.694c0.204,0.301,0.613,0.38,0.915,0.177l2.931-1.986c0.3-0.204,0.38-0.613,0.177-0.914
			l-6.558-9.682c-0.204-0.301-0.614-0.38-0.915-0.176l-2.93,1.985c-0.302,0.204-0.381,0.614-0.177,0.914L20.971,12.694z"/>
		<path style="fill:#030104;" d="M37.413,39.838c0.19,0.31,0.599,0.405,0.907,0.214l3.009-1.863c0.31-0.191,0.405-0.598,0.214-0.906
			l-5.748-9.29c-0.193-0.309-0.599-0.405-0.908-0.213l-3.008,1.863c-0.311,0.19-0.404,0.597-0.215,0.907L37.413,39.838z"/>
		<path style="fill:#030104;" d="M48.571,52.952c-0.179-0.791-0.845-1.301-1.646-1.281c-1.25,0.019-1.838,1.218-2.113,2.847
			c-1.004,0.254-2.299,0.377-3.385-0.19c-1.11-0.574-1.852-1.817-2.193-3.691c-0.098-0.523-0.121-1.002-0.073-1.428
			c0.382-0.062,0.776-0.149,1.185-0.262c1.104-0.3,4.037-1.095,3.613-2.851c-0.242-1.003-1.527-1.467-3.121-1.128
			c-1.229,0.262-2.5,1.018-3.186,2.369c-0.975-0.004-1.771-0.254-2.383-0.751c-1.81-1.472-1.651-4.704-1.646-4.787
			c0.001-0.013-0.005-0.022-0.005-0.035c0.687-0.012,1.388-0.089,2.104-0.272c0.354-0.092,0.476-0.437,0.281-0.744l-5.722-9.094
			c-0.192-0.31-0.635-0.469-0.998-0.438c-0.852,0.068-2.356-0.393-4.18-2.921c-2.624-3.643-5.877-9.631-5.877-9.631
			s-1.903-2.821,0.098-4.352c0.288-0.221,0.398-0.588,0.198-0.891l-6.354-9.603c-0.2-0.305-0.549-0.32-0.751-0.018
			c-1.009,1.505-3.496,6.094-1.423,12.312c1.027,3.086,2.776,7.578,5.186,11.28c3.571,5.482,7.904,9.797,7.904,9.797
			s3.164,3.563,7.56,4.402c-0.004,0.027-0.02,0.053-0.021,0.082c-0.011,0.176-0.245,4.316,2.371,6.459
			c0.867,0.709,1.92,1.105,3.149,1.191c-0.026,0.508,0.01,1.064,0.121,1.672c0.461,2.515,1.551,4.231,3.236,5.106
			c1.368,0.713,2.854,0.726,4.108,0.507c-0.017,0.396-0.024,0.797-0.029,1.195c-0.006,0.552,0.438,1.004,0.99,1.011
			c0.003,0,0.007,0,0.01,0c0.548,0,0.994-0.44,1-0.989c0.007-0.715,0.033-1.312,0.072-1.811c0.171-0.066,0.321-0.135,0.45-0.191
			C48.144,55.345,48.815,54.033,48.571,52.952z"/>
	</g>
</g>
</svg>